HIERARCHY
ROOT Hips
{
	OFFSET 0.000000 0.000000 0.000000
	CHANNELS 6 Xposition Yposition Zposition Zrotation Yrotation Xrotation 
	JOINT LHipJoint
	{
		OFFSET 0.000000 0.000000 0.000000
		CHANNELS 3 Zrotation Yrotation Xrotation
		JOINT LeftUpLeg
		{
			OFFSET 1.363060 -1.794630 0.839290
			CHANNELS 3 Zrotation Yrotation Xrotation
			JOINT LeftLeg
			{
				OFFSET 2.448110 -6.726130 0.000000
				CHANNELS 3 Zrotation Yrotation Xrotation
				JOINT LeftFoot
				{
					OFFSET 2.562200 -7.039590 0.000000
					CHANNELS 3 Zrotation Yrotation Xrotation
					JOINT LeftToeBase
					{
						OFFSET 0.157640 -0.433110 2.322550
						CHANNELS 3 Zrotation Yrotation Xrotation
						End Site
						{
							OFFSET 0.000000 0.000000 0.000000
						}
					}
				}
			}
		}
	}
	JOINT RHipJoint
	{
		OFFSET 0.000000 0.000000 0.000000
		CHANNELS 3 Zrotation Yrotation Xrotation
		JOINT RightUpLeg
		{
			OFFSET -1.305520 -1.794630 0.839290
			CHANNELS 3 Zrotation Yrotation Xrotation
			JOINT RightLeg
			{
				OFFSET -2.542530 -6.985550 0.000000
				CHANNELS 3 Zrotation Yrotation Xrotation
				JOINT RightFoot
				{
					OFFSET -2.568260 -7.056230 0.000000
					CHANNELS 3 Zrotation Yrotation Xrotation
					JOINT RightToeBase
					{
						OFFSET -0.164730 -0.452590 2.363150
						CHANNELS 3 Zrotation Yrotation Xrotation
						End Site
						{
							OFFSET 0.000000 0.000000 0.000000
						}
					}
				}
			}
		}
	}
	JOINT LowerBack
	{
		OFFSET 0.000000 0.000000 0.000000
		CHANNELS 3 Zrotation Yrotation Xrotation
		JOINT Spine
		{
			OFFSET 0.028270 2.035590 -0.193380
			CHANNELS 3 Zrotation Yrotation Xrotation
			JOINT Spine1
			{
				OFFSET 0.056720 2.048850 -0.042750
				CHANNELS 3 Zrotation Yrotation Xrotation
				JOINT Neck
				{
					OFFSET 0.000000 0.000000 0.000000
					CHANNELS 3 Zrotation Yrotation Xrotation
					JOINT Neck1
					{
						OFFSET -0.054170 1.746240 0.172020
						CHANNELS 3 Zrotation Yrotation Xrotation
						JOINT Head
						{
							OFFSET 0.104070 1.761360 -0.123970
							CHANNELS 3 Zrotation Yrotation Xrotation
							End Site
							{
								OFFSET 0.000000 0.000000 0.000000
							}
						}
					}
				}
				JOINT LeftShoulder
				{
					OFFSET 0.000000 0.000000 0.000000
					CHANNELS 3 Zrotation Yrotation Xrotation
					JOINT LeftArm
					{
						OFFSET 3.362410 1.200890 -0.311210
						CHANNELS 3 Zrotation Yrotation Xrotation
						JOINT LeftForeArm
						{
							OFFSET 4.983000 -0.000000 -0.000000
							CHANNELS 3 Zrotation Yrotation Xrotation
							JOINT LeftHand
							{
								OFFSET 3.483560 -0.000000 -0.000000
								CHANNELS 3 Zrotation Yrotation Xrotation
								JOINT LeftFingerBase
								{
									OFFSET 0.000000 0.000000 0.000000
									CHANNELS 3 Zrotation Yrotation Xrotation
									JOINT LeftHandIndex1
									{
										OFFSET 0.715260 -0.000000 -0.000000
										CHANNELS 3 Zrotation Yrotation Xrotation
										End Site
										{
											OFFSET 0.000000 0.000000 0.000000
										}
									}
								}
								JOINT LThumb
								{
									OFFSET 0.000000 0.000000 0.000000
									CHANNELS 3 Zrotation Yrotation Xrotation
									End Site
									{
										OFFSET 0.000000 0.000000 0.000000
									}
								}
							}
						}
					}
				}
				JOINT RightShoulder
				{
					OFFSET 0.000000 0.000000 0.000000
					CHANNELS 3 Zrotation Yrotation Xrotation
					JOINT RightArm
					{
						OFFSET -3.136600 1.374050 -0.404650
						CHANNELS 3 Zrotation Yrotation Xrotation
						JOINT RightForeArm
						{
							OFFSET -5.241900 -0.000000 -0.000000
							CHANNELS 3 Zrotation Yrotation Xrotation
							JOINT RightHand
							{
								OFFSET -3.444170 -0.000000 -0.000000
								CHANNELS 3 Zrotation Yrotation Xrotation
								JOINT RightFingerBase
								{
									OFFSET 0.000000 0.000000 0.000000
									CHANNELS 3 Zrotation Yrotation Xrotation
									JOINT RightHandIndex1
									{
										OFFSET -0.622530 -0.000000 -0.000000
										CHANNELS 3 Zrotation Yrotation Xrotation
										End Site
										{
											OFFSET 0.000000 0.000000 0.000000
										}
									}
								}
								JOINT RThumb
								{
									OFFSET 0.000000 0.000000 0.000000
									CHANNELS 3 Zrotation Yrotation Xrotation
									End Site
									{
										OFFSET 0.000000 0.000000 0.000000
									}
								}
							}
						}
					}
				}
			}
		}
	}
}
MOTION
Frames: 12
Frame Time: 0.008333
0.103881 17.668768 -34.536750 -3.000758 -2.326958 5.578033 -0.879322 3.411774 3.589709 -6.930044 -3.400567 -27.244982 21.626706 19.151209 96.267458 1.808772 -7.779742 25.710941 0.017600 -0.857000 -2.355400 4.063175 -2.587507 3.128965 24.693485 13.163284 -22.472405 -5.268245 -12.590915 44.522817 2.641478 -8.979479 -0.241416 -0.030900 1.135300 -3.121200 2.682852 -0.264744 17.720777 2.996768 0.777278 -0.921979 1.574482 -0.116916 -10.930537 -5.198989 -3.646808 -16.512926 5.297664 -3.933175 8.443393 0.192700 -1.725700 7.588400 -4.585395 1.622241 -1.078834 -84.527735 18.809343 43.269873 109.666426 -59.770030 -80.091443 -0.041667 -0.909519 -34.691863 18.709129 5.989285 2.345600 -7.125000 0.000000 0.000000 -6.360200 37.039700 1.251800 8.971000 -1.349577 -2.737476 72.035434 -12.937496 58.330173 -124.380554 56.919814 -90.162812 0.664116 -0.754348 -20.163159 -32.251455 36.527047 -21.268300 7.125000 0.000000 0.000000 0.859600 12.306800 1.023200 
0.075389 17.630710 -34.095647 -2.918814 -3.794609 6.246430 -0.624885 3.226435 3.275570 -6.854172 -1.977537 -30.183933 21.906151 19.472289 96.804653 1.721801 -7.484437 24.799209 0.003600 -0.390100 -1.072000 4.084219 -2.712662 3.241685 24.760030 14.418756 -20.945634 -5.322757 -12.497396 44.634546 2.722470 -9.156920 -1.257551 -0.089100 1.924900 -5.298000 2.061155 0.737284 17.111184 2.784808 1.836630 -0.583062 1.139687 0.413400 -9.749804 -4.343251 -4.149207 -18.896839 5.303946 -4.604359 8.607837 -0.043300 -1.974900 8.061200 -4.620961 1.700380 -1.117979 -83.243659 18.425588 44.061846 109.642891 -59.796058 -80.052518 -0.025423 -0.926092 -35.371965 18.740676 6.489775 2.529400 -7.125000 0.000000 0.000000 -6.394300 37.583700 1.173000 8.901629 -1.283408 -2.597774 73.029581 -9.958666 58.091902 -125.059432 56.531676 -90.755116 0.671699 -0.828502 -19.743950 -32.803889 38.689862 -22.654500 7.125000 0.000000 0.000000 1.182400 14.771800 1.445100 
0.089323 17.624887 -33.589554 -2.753501 -2.451473 7.308514 -0.454742 2.913101 2.905790 -6.758524 -3.413786 -33.066854 22.001159 19.744650 96.655505 1.534022 -6.397666 24.220363 -0.000000 -0.034000 -0.093400 4.119726 -2.656865 3.460334 24.671973 13.563859 -20.507107 -5.185080 -12.351594 44.162313 3.100504 -10.043321 -2.173522 -0.177600 2.714800 -7.485600 2.420491 0.362724 15.318351 2.826706 1.368542 -0.761386 1.199359 0.240132 -9.114496 -4.796192 -4.233439 -18.315624 5.487130 -4.656076 8.403232 0.112100 -2.017900 7.863800 -4.588377 1.786620 -1.153336 -83.180093 20.024475 44.155104 110.479633 -59.706644 -80.632082 -0.019094 -0.943463 -36.217193 19.096140 7.192364 2.833300 -7.125000 0.000000 0.000000 -6.171400 38.355900 1.014400 8.889181 -1.287611 -2.540135 72.509863 -8.956091 59.081266 -126.573833 55.907099 -91.952741 0.627008 -0.909406 -19.561196 -33.542579 42.370251 -24.758100 7.125000 0.000000 0.000000 1.967800 18.768200 2.497400 
0.091507 17.627174 -33.125574 -2.690541 -1.811519 7.665432 -0.315547 2.716729 2.621729 -6.668842 -4.122490 -35.325860 21.972023 19.990713 96.261926 1.346153 -5.763891 22.232534 0.049600 -1.436800 -3.951500 4.176223 -2.719127 3.733756 24.741495 13.105768 -19.306880 -5.067557 -12.186971 43.749255 3.375682 -10.675062 -2.900917 -0.247600 3.202200 -8.842200 2.449778 0.346912 15.204485 2.898770 1.345676 -0.868533 1.364544 0.253361 -9.261370 -5.107076 -4.439617 -18.606396 5.580256 -4.808899 8.612362 0.186700 -2.085800 8.019300 -4.579788 1.837186 -1.194853 -83.059420 21.260283 44.383112 111.318998 -59.580931 -81.236502 -0.011217 -0.950109 -37.160798 19.198192 7.545590 2.975900 -7.125000 0.000000 0.000000 -6.122900 38.734900 0.949100 8.884687 -1.236932 -2.485231 72.212917 -7.859449 59.487580 -128.434292 55.108872 -93.418052 0.618513 -0.932271 -20.897349 -33.195315 43.821189 -25.023800 7.125000 0.000000 0.000000 2.624500 20.098400 3.369300 
0.092338 17.644540 -32.680623 -2.555520 -0.926875 7.624034 -0.277450 2.552809 2.437369 -6.638402 -5.024902 -37.130471 21.788332 20.185318 95.464419 1.202499 -5.234479 20.715569 0.045900 -1.382700 -3.802500 4.208934 -2.842048 4.114349 24.839526 12.330980 -18.070919 -4.922530 -12.000579 43.210097 3.669739 -11.315278 -3.121940 -0.337100 3.731400 -10.322100 1.950989 -0.124189 15.539380 3.306441 0.704297 -1.867925 2.750049 0.062571 -12.039119 -6.783512 -3.433682 -12.061021 5.840729 -3.831814 7.410469 0.714500 -1.771200 6.375000 -4.426037 1.692573 -1.215632 -84.574831 26.555363 43.092822 113.296763 -59.261087 -82.682309 0.003664 -0.922720 -38.204682 18.266432 7.716905 2.871300 -7.125000 0.000000 0.000000 -6.955100 38.816800 1.065500 9.035683 -1.429202 -2.612574 70.423608 -10.580269 61.805499 -131.204317 54.032439 -95.394831 0.612666 -0.836643 -22.784900 -32.549452 39.770616 -22.847500 7.125000 0.000000 0.000000 1.681900 15.795300 2.076900 
0.094210 17.678023 -32.222675 -2.663313 -0.331297 7.830889 -0.132084 2.422521 2.158566 -6.617734 -5.645920 -38.751045 21.417373 20.411485 94.116281 1.102515 -4.802959 19.702208 0.005500 -0.480900 -1.321300 4.356496 -2.874779 4.353883 25.056786 11.648425 -16.868943 -4.775079 -11.811706 42.592100 4.008440 -12.022921 -2.704495 -0.459600 4.348700 -12.059900 2.993073 0.375152 15.646339 2.750671 1.461101 -1.225179 0.712282 0.314011 -10.266188 -4.835723 -4.704033 -17.701408 5.687420 -5.349686 8.633614 0.144900 -2.318000 7.892800 -4.540373 1.862417 -1.261122 -81.464673 24.392820 45.620817 113.944177 -59.132497 -83.193156 0.038217 -0.913986 -40.086166 17.470397 7.493980 2.667000 -7.125000 0.000000 0.000000 -7.609100 38.521100 1.222600 8.823549 -1.213355 -2.440594 72.743355 -6.980454 59.717402 -132.706413 53.094656 -96.703666 0.692675 -0.945121 -22.914887 -34.639324 43.016676 -25.959100 7.125000 0.000000 0.000000 1.703000 19.883100 2.181500 
0.096602 17.704539 -31.757239 -2.765135 -0.165431 7.920690 -0.081652 2.323700 1.967263 -6.628750 -5.933703 -40.193793 20.913139 20.621032 92.403006 0.961316 -4.325839 16.785354 0.285700 -3.437700 -9.499800 4.442831 -3.021185 4.687381 25.245171 11.373820 -15.191641 -4.632310 -11.587241 41.901320 4.365964 -12.748705 -1.938667 -0.585500 4.899100 -13.621100 2.970051 0.519130 15.989121 2.861068 1.666351 -1.482668 0.941315 0.430376 -11.116710 -5.238913 -4.790300 -16.785414 5.731842 -5.448014 8.502559 0.227200 -2.395100 7.701600 -4.498955 1.859842 -1.294617 -81.421713 26.522258 45.681330 115.441752 -58.841017 -84.301431 0.030694 -0.899101 -41.258507 17.395834 7.091906 2.518900 -7.125000 0.000000 0.000000 -7.599800 38.069500 1.305900 8.857198 -1.212622 -2.448239 72.276292 -7.238740 60.606029 -134.409815 52.211584 -98.019795 0.663900 -0.993475 -21.836145 -36.349851 45.445454 -28.397500 7.125000 0.000000 0.000000 1.798100 22.894200 2.356800 
0.113655 17.741142 -31.262896 -2.771559 -0.199111 8.287594 -0.058035 2.233601 1.770430 -6.871758 -6.238652 -41.620305 20.243676 20.803944 90.173800 0.726378 -3.209065 12.450696 1.712300 -8.239300 -23.443300 4.556796 -3.176139 4.996306 25.068027 11.452498 -13.426697 -4.389371 -11.304356 40.957729 4.320213 -12.575634 -0.898700 -0.674200 5.250400 -14.624000 3.068750 0.692604 15.483310 2.866066 1.886597 -1.626639 0.887374 0.560490 -11.216635 -5.558927 -4.856097 -16.311455 5.882659 -5.509001 8.530983 0.349300 -2.428300 7.642700 -4.468722 1.908103 -1.330023 -81.331241 28.288193 45.550108 116.735982 -58.576737 -85.254572 0.036329 -0.895539 -42.128016 17.214130 7.327623 2.564200 -7.125000 0.000000 0.000000 -7.784700 38.292300 1.295200 8.851733 -1.201294 -2.434727 72.032729 -7.234446 61.441082 -135.460189 51.621791 -98.841562 0.634842 -1.047637 -19.919015 -38.881527 48.371762 -31.814600 7.125000 0.000000 0.000000 1.882600 26.642800 2.527800 
0.134348 17.799893 -30.757010 -2.754812 -0.254379 8.654047 -0.074140 2.153782 1.568590 -7.245761 -6.542461 -42.638367 19.214993 20.961643 87.078806 0.976385 -3.775248 19.504343 0.041000 1.307500 3.595200 4.702750 -3.304459 5.267908 24.768730 11.547667 -11.731115 -4.086529 -10.998996 39.903442 3.905770 -11.600387 0.554487 -0.717100 5.411500 -15.085900 3.541877 0.896674 14.253355 2.662605 2.148877 -1.408774 0.178167 0.709853 -10.014259 -5.526674 -5.079137 -16.708709 6.157772 -5.794056 8.467204 0.442000 -2.532800 7.676300 -4.466419 2.016949 -1.345447 -80.783809 28.627132 45.540364 117.232179 -58.498396 -85.623305 0.047966 -0.892280 -42.668973 16.842602 7.487013 2.555600 -7.125000 0.000000 0.000000 -8.128800 38.429900 1.325700 8.756354 -1.185378 -2.339946 72.629947 -5.855293 60.682991 -136.897752 50.706462 -100.088301 0.757471 -1.134732 -22.978333 -46.215392 59.178910 -42.548500 7.125000 0.000000 0.000000 5.016800 38.676000 7.063700 
0.153793 17.914692 -30.214730 -2.717437 -0.592325 8.936388 -0.197173 2.111159 1.435684 -7.688678 -6.503154 -43.054349 17.977836 20.952307 83.527805 0.942014 -3.809202 12.918574 0.972600 -6.278400 -17.594400 4.854695 -3.505712 5.625686 24.300374 11.627972 -9.926286 -3.733170 -10.639452 38.553925 3.641594 -10.999835 2.923121 -0.922600 6.119600 -17.131700 3.232396 1.350733 14.206320 2.783475 2.701160 -1.714234 0.527416 1.001535 -10.792423 -5.773756 -5.251318 -16.403414 5.855830 -5.965590 8.871784 0.341500 -2.642600 7.806100 -4.420094 2.023378 -1.400459 -81.211626 30.610064 45.435591 117.770910 -58.385086 -86.006809 0.042860 -0.884497 -42.704588 16.709459 7.369217 2.495500 -7.125000 0.000000 0.000000 -8.223100 38.288500 1.370100 8.791349 -1.156909 -2.384104 72.040532 -6.438884 61.163137 -137.864895 50.319902 -100.497520 0.611930 -0.939636 -20.036899 -33.974386 38.483743 -23.476100 7.125000 0.000000 0.000000 0.635700 15.096200 0.779300 
0.169287 18.020029 -29.687424 -2.620820 -0.409717 9.319945 -0.341603 2.031029 1.220688 -8.069559 -6.978056 -43.424788 16.567624 20.869620 79.468490 1.013906 -3.823298 13.978775 0.475200 -4.421100 -12.264600 5.026443 -3.610939 5.901804 23.833161 11.350022 -8.520097 -3.405426 -10.298075 37.201548 3.518580 -10.836550 5.781211 -0.944500 6.189700 -17.335700 3.320214 1.582839 12.082267 2.759047 2.905880 -1.254705 0.498269 1.200253 -8.688039 -5.832701 -5.358208 -16.041868 5.876380 -6.147401 8.074339 0.346100 -2.771000 7.349800 -4.372974 2.123759 -1.369882 -81.342500 30.514197 45.181660 117.927346 -58.389197 -86.100311 0.040817 -0.878258 -42.934176 16.529058 7.293851 2.442200 -7.125000 0.000000 0.000000 -8.363400 38.189100 1.414400 8.742882 -1.231562 -2.294097 72.043986 -5.131552 60.957751 -138.618609 49.960887 -100.899697 0.611407 -0.787205 -18.786846 -31.114727 29.269408 -17.124300 7.125000 0.000000 0.000000 -0.150300 4.381000 -0.161300 
0.175526 18.133268 -29.178731 -2.478695 0.419110 9.491294 -0.546196 1.931152 1.005920 -8.320508 -7.960916 -43.500518 14.987138 20.614384 75.025819 1.169682 -4.139472 14.000619 0.508200 -4.569600 -12.685000 5.242792 -3.703360 6.263346 23.374922 10.450584 -7.407066 -3.041670 -9.912597 35.645332 3.352598 -10.783604 9.352050 -1.001200 6.367300 -17.853900 3.481832 1.533283 11.135501 2.713341 2.806514 -1.109930 0.395953 1.207801 -7.929483 -5.878454 -5.383090 -15.462531 5.973706 -6.248982 7.464515 0.392500 -2.845500 6.972600 -4.340283 2.170919 -1.368517 -81.633852 31.065221 44.401640 117.940940 -58.414044 -86.112255 0.062136 -0.872004 -43.298237 15.809106 7.585301 2.417300 -7.125000 0.000000 0.000000 -9.035800 38.442800 1.473500 8.708271 -1.270091 -2.245720 72.208148 -4.521468 60.628428 -139.299598 49.573596 -101.351242 0.614224 -0.723749 -19.001472 -29.719847 26.238627 -14.802000 7.125000 0.000000 0.000000 0.060800 0.676300 0.061500 
